<?xml version="1.0" encoding="UTF-8" standalone="no"?>
<!-- Created with Inkscape (http://www.inkscape.org/) -->

<svg
   xmlns:dc="http://purl.org/dc/elements/1.1/"
   xmlns:cc="http://creativecommons.org/ns#"
   xmlns:rdf="http://www.w3.org/1999/02/22-rdf-syntax-ns#"
   xmlns:svg="http://www.w3.org/2000/svg"
   xmlns="http://www.w3.org/2000/svg"
   xmlns:sodipodi="http://sodipodi.sourceforge.net/DTD/sodipodi-0.dtd"
   xmlns:inkscape="http://www.inkscape.org/namespaces/inkscape"
   version="1.1"
   id="svg3545"
   width="206.80379"
   height="68.43573"
   viewBox="0 0 206.80379 68.43573"
   sodipodi:docname="cmx.svg"
   inkscape:version="0.92.2 5c3e80d, 2017-08-06">
  <metadata
     id="metadata3551">
    <rdf:RDF>
      <cc:Work
         rdf:about="">
        <dc:format>image/svg+xml</dc:format>
        <dc:type
           rdf:resource="http://purl.org/dc/dcmitype/StillImage" />
        <dc:title></dc:title>
      </cc:Work>
    </rdf:RDF>
  </metadata>
  <defs
     id="defs3549" />
  <sodipodi:namedview
     pagecolor="#ffffff"
     bordercolor="#666666"
     borderopacity="1"
     objecttolerance="10"
     gridtolerance="10"
     guidetolerance="10"
     inkscape:pageopacity="0"
     inkscape:pageshadow="2"
     inkscape:window-width="1366"
     inkscape:window-height="704"
     id="namedview3547"
     showgrid="false"
     inkscape:zoom="2.1333333"
     inkscape:cx="85.60416"
     inkscape:cy="33.881565"
     inkscape:window-x="0"
     inkscape:window-y="27"
     inkscape:window-maximized="1"
     inkscape:current-layer="svg3545" />
  <path
     style="fill:#000000"
     d="m 15.928664,65.311446 c -3.50632,-1.84602 -6.8428703,-4.21235 -7.4145403,-5.2585 -0.57167,-1.04615 -1.30286,-2.12709 -1.62487,-2.40209 -3.28097,-2.80204 -6.21494998,-12.658833 -6.09100998,-20.462997 0.044,-2.770352 -0.22728,-6.342849 -0.60284,-7.938883 -0.44705,-1.899854 -0.12375,-3.97167 0.93626998,-6 0.8905,-1.703966 2.09171,-4.22312 2.66935,-5.59812 2.14027,-5.09463 5.55901,-10.3562594 7.4150203,-11.4121324 1.05174,-0.598327 2.73924,-1.875368 3.75,-2.837868 1.01076,-0.9625 3.1206,-1.75 4.68853,-1.75 1.56792,0 4.25487,-0.489471 5.97099,-1.08771304 2.47882,-0.86412 3.77444,-0.761339 6.30286,0.50000004 1.75046,0.873242 5.0525,1.587713 7.33788,1.587713 2.28538,0 5.02874,0.660688 6.09636,1.468197 1.06762,0.807508 2.65889,1.482508 3.53614,1.5 1.9165,0.03821 4.89622,3.128793 4.92723,5.1105444 0.0122,0.781692 0.90222,2.546259 1.97776,3.921259 2.09238,2.674951 2.0386,2.780757 2.40261,-4.7266764 0.13917,-2.87024 0.9657,-5.036467 2.57548,-6.75 2.0571,-2.18968004 3.21959,-2.52332404 8.79185,-2.52332404 4.86014,0 7.11777,0.49591804 9.28592,2.03977304 l 2.86459,2.039773 2.03978,-2.039773 c 1.25101,-1.251015 3.29651,-2.01928304 5.28977,-1.98678604 6.57805,0.107247 18.745346,2.63283204 20.549396,4.26546804 2.46811,2.233614 3.43468,2.125732 6.06796,-0.677269 1.82494,-1.942557 3.5615,-2.460574 9.84065,-2.935465 6.38155,-0.48263504 8.25764,-0.253729 11.50705,1.403994 2.13531,1.089355 4.1515,2.681943 4.48041,3.539085 0.44507,1.159824 0.92807,0.773512 1.88836,-1.510334 1.56109,-3.712741 5.33925,-4.92966304 10.03419,-3.231949 2.36965,0.856874 3.87755,0.898629 5.28329,0.146298 5.45744,-2.92073 11.40819,0.215 14.60713,7.697185 1.43811,3.3636834 3.49156,4.3871334 3.49156,1.7402134 0,-0.830384 0.9,-2.2803924 2,-3.2222414 1.1,-0.94185 2,-2.232345 2,-2.867768 0,-2.797223 3.23902,-3.746031 12.60202,-3.691519 10.57458,0.06156 13.39798,1.382592 13.39798,6.268721 0,3.4735724 -5.54735,13.6798974 -8.47954,15.6011444 -1.25697,0.823596 -3.20271,3.704768 -4.32388,6.402604 -1.74637,4.202231 -1.83487,5.074152 -0.61754,6.084446 0.78153,0.648609 1.42096,1.799189 1.42096,2.556845 0,0.757655 0.44085,1.377555 0.97968,1.377555 0.53882,0 1.89796,1.8 3.02032,4 1.12236,2.2 2.369,4.003075 2.77032,4.006833 2.02978,0.01901 5.22968,6.901567 5.22968,11.248347 0,6.40382 -2.10482,7.74482 -12.15616,7.74482 h -7.71114 l -4.71387,-6 c -2.59262,-3.3 -5.20998,-5.99715 -5.81635,-5.99368 -1.10835,0.006 -3.96901,4.21556 -6.21473,9.14446 -1.43796,3.15601 -4.29679,3.86862 -13.38775,3.33712 -8.9889,-0.52554 -10.40579,-0.53739 -19.5,-0.16306 -4.4,0.18111 -8.9486,-0.007 -10.10799,-0.41903 -1.15939,-0.41158 -3.14771,-2.69626 -4.41848,-5.07707 -2.17006,-4.06565 -2.29864,-5.31637 -2.11558,-20.57874 0.10986,-9.159705 -0.19953,-16.25 -0.70908,-16.25 -2.47309,0 -3.01554,3.349189 -2.95681,18.255781 0.0512,12.985879 -0.22403,16.144069 -1.58814,18.225959 -0.90751,1.38504 -2.13414,2.51826 -2.72584,2.51826 -0.5917,0 -2.60847,0.72729 -4.4817,1.61619 -4.69204,2.22653 -16.064546,1.5581 -17.976446,-1.05658 -1.01979,-1.39464 -1.25039,-5.42727 -0.96898,-16.944907 0.20312,-8.313087 0.68786,-16.1296 1.0772,-17.370029 0.67999,-2.166414 -0.82065,-5.244674 -2.55676,-5.244674 -1.32644,0 -2.24034,9.872613 -2.17539,23.5 0.0712,14.9345 -0.5949,16.76025 -6.79196,18.61694 -3.07777,0.92212 -4.90792,0.92883 -7.9113,0.029 -4.3394,-1.30012 -10.09274,-7.10362 -10.09274,-10.18074 0,-2.8319 -1.21314,-2.43831 -4.73067,1.5348 -1.70426,1.925 -3.81206,3.5 -4.684,3.5 -0.87193,0 -1.58533,0.41968 -1.58533,0.93261 0,0.51294 -1.0038,1.25121 -2.23066,1.6406 -1.22686,0.38939 -3.44229,1.60378 -4.92318,2.69865 -1.95922,1.44851 -3.46239,1.80119 -5.51934,1.29496 -4.02291,-0.99007 -5.26546,-1.01911 -10.32682,-0.24133 -3.91823,0.6021 -5.32419,0.25758 -10.87513,-2.6649 z m 26.11939,-1.09558 c 0.95934,-0.42602 1.52679,-1.12644 1.26101,-1.55649 -0.26579,-0.43005 0.27105,-1.39539 1.19297,-2.14521 1.46391,-1.19064 1.59315,-1.14166 1.02038,0.38669 -0.87893,2.34526 0.54885,2.21692 2.78138,-0.25 0.99549,-1.1 2.27811,-2 2.85027,-2 0.57216,0 2.30242,-1.20919 3.84501,-2.68709 4.70928,-4.51177 3.33878,-13.33005 -2.50734,-16.133194 -2.50446,-1.200857 -2.92679,-1.110401 -4.66892,1 l -1.91538,2.320284 0.56481,-2.25 c 0.81459,-3.245033 -2.58749,-2.976721 -6.33981,0.5 -7.70971,7.143459 -8.03312,7.315245 -10.26104,5.450362 -3.15865,-2.643954 -5.27599,-13.360188 -3.77774,-19.119809 1.46297,-5.624015 3.17988,-7.144083 7.71014,-6.826168 3.07986,0.216131 3.54063,0.605737 3.83849,3.245615 0.53718,4.761068 1.66715,5.395021 9.48792,5.323042 8.3989,-0.0773 11.66907,-1.089766 12.38699,-3.835082 0.68558,-2.621652 3.2866,-2.565417 3.2866,0.07106 0,1.132459 -0.36389,1.834122 -0.80864,1.559251 -1.30471,-0.806353 -0.60308,23.482439 0.8116,28.096089 1.47506,4.8105 4.08928,7.53825 8.70128,9.07914 4.53989,1.5168 10.10452,-0.16031 11.34338,-3.41875 1.37955,-3.62848 1.16918,-6.37475 -0.48832,-6.37475 -1.20681,0 -1.23502,-0.39643 -0.17382,-2.44191 0.93428,-1.800817 1.03995,-4.341984 0.4025,-9.67926 -0.47541,-3.980543 -0.63631,-7.831684 -0.35756,-8.558091 0.27874,-0.726406 0.10393,-1.320739 -0.38848,-1.320739 -0.49241,0 -1.10109,0.7875 -1.35261,1.75 -0.4154,1.589544 -0.46796,1.580961 -0.57333,-0.09362 -0.066,-1.048955 0.72345,-2.063141 1.83153,-2.35291 1.45582,-0.380706 2.0239,-1.536715 2.25,-4.57866 0.2594,-3.489931 0.71722,-4.206821 3.21527,-5.03469 2.33904,-0.775174 3.15729,-0.630963 4.154,0.732121 0.79116,1.081981 1.4787,1.313163 1.89622,0.6376 0.36026,-0.582913 1.16846,-1.059841 1.796,-1.059841 0.82185,0 0.80535,0.335633 -0.059,1.2 -1.57547,1.575466 -1.54229,3.091418 0.05,2.28486 0.6875,-0.348246 0.57051,-0.0373 -0.25999,0.690983 -1.97815,1.734705 -3.83595,9.027226 -2.91296,11.434409 0.39853,1.039361 1.68675,2.902248 2.86273,4.139748 2.47338,2.602795 1.6069,3.054711 -1.12194,0.585145 -1.77209,-1.603718 -1.83609,-1.374207 -1.74273,6.25 0.0533,4.353175 -0.18537,8.625295 -0.53038,9.493625 -0.41117,1.03483 0.16212,1.99294 1.66399,2.78093 1.2602,0.66119 1.48041,0.9684 0.48934,0.68268 -1.08194,-0.3119 -1.54777,-0.10823 -1.16584,0.50975 0.34985,0.56607 1.46035,0.76762 2.46778,0.44787 1.00743,-0.31975 2.12111,-0.11305 2.47486,0.45932 0.9318,1.50768 6.742946,1.27685 9.080886,-0.36071 1.10043,-0.77077 3.09804,-1.55827 4.43914,-1.75 1.78149,-0.2547 2.69704,-1.25438 3.3986,-3.7109 0.84967,-2.97512 0.68078,-3.5771 -1.46663,-5.22776 -1.33477,-1.02601 -1.95436,-1.87548 -1.37686,-1.88771 0.5775,-0.0122 1.59,0.51776 2.25,1.17776 0.93333,0.93333 1.2,0.60697 1.2,-1.468615 0,-2.082156 -0.38458,-2.549039 -1.75,-2.124495 -1.63591,0.508646 -1.6384,0.472158 -0.0383,-0.559657 1.45231,-0.936499 1.69178,-2.698712 1.58012,-11.627851 -0.11722,-9.374118 0.0922,-10.747861 1.91644,-12.572115 1.69056,-1.69056 2.4184,-1.84983 4.16988,-0.912471 2.26954,1.214624 2.72982,4.039204 2.23333,13.705088 -0.22568,4.393672 0.0737,5.387084 2.06224,6.842586 l 2.32626,1.702701 -2.25,-0.659973 c -2.15785,-0.632944 -2.25,-0.412582 -2.25,5.380663 0,4.184209 0.67589,7.431809 2.19927,10.567389 2.03528,4.18923 2.48265,4.52675 6,4.52675 2.33181,0 3.83124,-0.4831 3.87968,-1.25 0.0632,-1 0.17982,-1 0.58333,0 0.27741,0.6875 0.94344,1.25 1.48007,1.25 0.53663,0 0.63775,-0.5625 0.22471,-1.25 -0.5742,-0.95575 -0.41154,-0.9858 0.69098,-0.12763 0.84811,0.66014 4.62161,1.0279 9.16261,0.89298 5.01307,-0.14894 7.50107,0.12591 7.09451,0.78373 -0.40329,0.65253 0.54143,0.7796 2.65435,0.35702 1.80427,-0.36086 4.72345,-0.6561 6.48708,-0.6561 2.73547,0 3.64965,-0.69787 6.22231,-4.75 1.65864,-2.6125 3.29531,-5.5375 3.63703,-6.5 0.74295,-2.09265 5.2254,-2.36315 6.38438,-0.38528 2.14248,3.65627 7.08458,8.98005 9.50003,10.23373 3.13077,1.62495 6.19946,1.85746 5.29966,0.40155 -0.83464,-1.35048 0.82583,-1.27417 2.20116,0.10116 1.66992,1.66992 7.09746,0.1087 7.84849,-2.2576 1.14852,-3.61867 -0.48535,-8.38891 -4.06005,-11.853644 -1.91927,-1.860237 -3.48959,-3.903264 -3.48959,-4.54006 0,-0.636796 -1.0125,-2.280294 -2.25,-3.652218 -5.15094,-5.710465 -6.68061,-7.797638 -5.7148,-7.797638 0.56208,0 2.17478,-2.658152 3.58377,-5.907004 1.49043,-3.436658 3.32471,-6.106512 4.38606,-6.38406 1.00806,-0.263614 3.23123,-3.312816 4.96892,-6.81514 2.55694,-5.1535404 2.95068,-6.7637974 2.10679,-8.6159394 -0.77683,-1.704958 -1.87323,-2.277857 -4.3593,-2.277857 -1.82679,0 -3.92746,0.5625 -4.66814,1.25 -1.07737,1 -1.20556,1 -0.64099,0 0.94834,-1.679729 -8.53614,-1.726165 -10.21231,-0.05 -1.4904,1.490401 -1.58357,3.155095 -0.12618,2.254374 0.59061,-0.365013 0.48779,0.27474 -0.22848,1.421673 -0.71627,1.146933 -1.96177,2.3383884 -2.76776,2.6476774 -1.00195,0.384484 -0.85061,-0.162906 0.47849,-1.7306904 l 1.94393,-2.293034 -2.25,1.904988 c -1.2375,1.0477434 -2.25,2.4944104 -2.25,3.2148164 0,0.720406 -0.97662,1.832501 -2.17027,2.471323 -1.88038,1.006346 -2.42582,0.810681 -4.08341,-1.464816 -1.05222,-1.444471 -2.7756,-2.626311 -3.82973,-2.626311 -1.05412,0 -1.91659,-0.6526394 -1.91659,-1.4503104 0,-0.79767 -0.7875,-1.908986 -1.75,-2.469591 -0.9625,-0.560605 -1.21302,-1.032966 -0.5567,-1.04969 0.65631,-0.01673 1.89381,0.969719 2.75,2.192097 1.27959,1.826875 1.5567,1.915881 1.5567,0.5 0,-1.82598 -3.36024,-5.722506 -4.9349,-5.722506 -2.0535,0 -6.15361,2.047763 -5.66926,2.831461 0.2839,0.459363 -0.11923,0.835206 -0.89584,0.835206 -0.77661,0 -1.21412,-0.320211 -0.97224,-0.71158 0.41454,-0.670739 -4.23737,-1.955087 -7.08133,-1.955087 -1.94721,0 -4.44643,2.873281 -4.44643,5.111921 0,2.2572924 3.04089,6.8589764 7.75,11.7278314 1.7875,1.848136 3.25,4.033281 3.25,4.855878 0,0.822596 0.96757,2.854462 2.15017,4.515258 2.38818,3.353895 3.306,7.851783 1.53217,7.508645 -0.62417,-0.120743 -1.28126,0.731314 -1.4602,1.893461 -0.17893,1.162147 -1.42712,2.615 -2.77374,3.228561 -2.10144,0.957482 -3.07339,2.474784 -2.1984,3.431915 0.1375,0.150408 -0.7625,1.360261 -2,2.688561 -1.2375,1.328301 -2.25,2.780239 -2.25,3.226529 0,0.44629 -0.675,0.81144 -1.5,0.81144 -1.66084,0 -1.92559,-1.99684 -1.55749,-11.747163 0.18629,-4.934477 -0.0981,-6.375303 -1.35333,-6.856989 -1.76162,-0.675999 -2.15313,-3.929272 -0.58918,-4.895848 0.55,-0.339919 1,-1.518034 1,-2.618034 0,-1.1 -0.45,-1.721885 -1,-1.381966 -1.24891,0.771871 -1.25205,0.293152 -0.0193,-2.949105 1.36301,-3.584985 -2.11423,-12.6440634 -6.16,-16.0483584 -2.60168,-2.189164 -3.88155,-2.536649 -8.44018,-2.291503 -2.95541,0.158931 -5.37505,0.635039 -5.37697,1.058018 -0.002,0.422979 -1.0895,0.496482 -2.41684,0.163342 -1.66663,-0.418297 -3.02748,0.0084 -4.39818,1.379129 -1.09167,1.091662 -3.32219,2.27857 -4.95672,2.637573 -2.45426,0.539047 -3.06528,0.295527 -3.50819,-1.398182 -0.41321,-1.579902 -1.34814,-2.050914 -4.07098,-2.050914 -1.94403,0 -3.81272,-0.45 -4.15264,-1 -0.922256,-1.492248 -5.196056,-1.208533 -8.642586,0.573736 -1.6738,0.865555 -3.26036,1.356643 -3.5257,1.091306 -0.26534,-0.265336 0.45148,-0.778842 1.59293,-1.141124 1.14145,-0.362281 2.07536,-1.078369 2.07536,-1.591306 0,-1.266012 -2.67669,-1.176011 -5.20084,0.174875 -1.65978,0.888289 -1.79522,1.281105 -0.68426,1.984687 0.92516,0.585914 0.0145,0.882285 -2.74246,0.892513 -2.49131,0.0092 -4.62824,-0.587979 -5.39058,-1.506545 -0.71799,-0.865121 -2.60485,-1.439895 -4.37244,-1.331925 -1.71018,0.104463 -4.14395,-0.148018 -5.40838,-0.56107 -1.52563,-0.498376 -3.14918,-0.193925 -4.82645,0.905067 -2.38819,1.564801 -2.50949,2.069061 -2.20104,9.1496474 l 0.32645,7.493576 -3.49771,-0.658502 c -4.07553,-0.767286 -4.7765,-1.615718 -5.64862,-6.83684 -0.5316,-3.182574 -1.24286,-4.1116754 -4.04339,-5.2818124 -1.86907,-0.780949 -3.78136,-1.183176 -4.24951,-0.893839 -0.46816,0.289338 -1.10923,-0.146347 -1.4246,-0.968188 -0.67502,-1.759075 -4.74248,-1.987948 -6.37188,-0.358542 -0.84762,0.847619 -1.56371,0.707723 -2.82292,-0.551491 -1.99211,-1.992107 -10.0981,-1.883684 -9.70337,0.129789 0.13719,0.699734 -0.3899,0.973059 -1.24425,0.645215 -0.81525,-0.312838 -1.23329,-0.971643 -0.92899,-1.464012 1.08647,-1.75795 -1.87513,-0.849969 -6.04984,1.854785 -4.15978,2.695084 -9.5149203,10.7959044 -9.5149203,14.3934054 0,0.886438 -0.675,2.171906 -1.5,2.856595 -1.60342,1.330721 -2.13673,7.511552 -0.56427,6.539722 0.58097,-0.359059 0.58097,0.658655 0,2.684381 -1.56047,5.441049 -1.20017,9.773583 0.81427,9.79121 1.2871,0.01126 1.4104,0.230795 0.46613,0.829949 -0.7179,0.45552 -0.99704,1.562099 -0.63322,2.510211 0.53856,1.403467 0.93202,1.4788 2.28387,0.437284 1.3177,-1.015205 1.29514,-0.860034 -0.11678,0.803217 -0.9625,1.133829 -1.75,2.554048 -1.75,3.156041 0,1.369025 4.89606,7.269095 5.8194203,7.012785 1.16974,-0.32471 5.18058,2.65891 5.18058,3.85377 0,0.62562 1.0125,1.82448 2.25,2.66414 1.71399,1.16297 4.63227,1.47071 12.25,1.29177 5.5,-0.12919 10.78492,-0.58345 11.74426,-1.00947 z m 146.255736,-2.56501 c -0.33992,-0.55 -0.16803,-1 0.38197,-1 0.55,0 1.27811,0.45 1.61803,1 0.33992,0.55 0.16803,1 -0.38197,1 -0.55,0 -1.27811,-0.45 -1.61803,-1 z M 27.362664,49.119053 c -1.06762,-0.807509 -1.49113,-1.468197 -0.94113,-1.468197 0.55,0 1.87351,0.660688 2.94113,1.468197 1.06762,0.807508 1.49113,1.468196 0.94113,1.468196 -0.55,0 -1.87351,-0.660688 -2.94113,-1.468196 z m 98.441126,0.654248 c 0,-1.008568 2.89219,-3.605677 3.3575,-3.014946 0.17004,0.215876 -0.51583,1.180001 -1.52417,2.142501 -1.00833,0.9625 -1.83333,1.3551 -1.83333,0.872445 z m 48,-0.06343 c 0,-0.517541 0.44485,-1.215913 0.98855,-1.551938 0.56686,-0.350339 0.7345,0.05106 0.39301,0.940983 -0.66479,1.73242 -1.38156,2.04939 -1.38156,0.610957 z M 93.412494,48.228173 c 0.30027,-0.782475 1.27341,-1.70184 2.16255,-2.043035 1.32812,-0.509646 1.28666,-0.255759 -0.2323,1.422682 -2.17821,2.406885 -2.67736,2.567307 -1.93025,0.620353 z M 131.251,45.736264 c 0.31089,-0.503024 0.1012,-1.144274 -0.46598,-1.425 -0.56718,-0.280725 -0.4856,-0.403535 0.18127,-0.27291 1.5858,0.31062 2.34514,2.6125 0.86182,2.6125 -0.6283,0 -0.88799,-0.411565 -0.57711,-0.91459 z M 42.823854,43.175022 c -0.78875,-0.950384 -0.86462,-1.524166 -0.20152,-1.524166 1.20855,0 2.61759,1.8972 1.9241,2.590697 -0.2517,0.251699 -1.02686,-0.22824 -1.72258,-1.066531 z m 37.43882,-1.590697 c -0.36253,-0.586592 -0.44468,-1.281 -0.18255,-1.543128 0.26212,-0.262129 0.74306,0.21781 1.06875,1.066531 0.67618,1.762107 0.0999,2.072058 -0.8862,0.476597 z m 44.541116,-8.874452 c 0,-0.517541 0.44485,-1.215913 0.98855,-1.551938 0.56686,-0.350339 0.7345,0.05106 0.39301,0.940983 -0.66479,1.732417 -1.38156,2.049387 -1.38156,0.610955 z M 16.882744,31.067523 c 0.048,-1.164943 0.28494,-1.4019 0.60416,-0.604167 0.28887,0.721875 0.25335,1.584375 -0.0789,1.916667 -0.3323,0.332291 -0.56864,-0.258334 -0.52522,-1.3125 z m 32.42105,-4.611612 c 1.1,-0.623771 2.33061,-1.622587 2.73469,-2.219592 0.50583,-0.747345 0.73945,-0.707052 0.75,0.129353 0.008,0.668149 -0.85511,1.680649 -1.91895,2.25 -2.63192,1.408559 -4.07225,1.261593 -1.56574,-0.159761 z m 75.499996,-0.305055 c -0.70675,-0.851583 -1.06,-1.773332 -0.785,-2.048332 0.275,-0.275 1.07825,0.196749 1.785,1.048332 0.70675,0.851583 1.06,1.773332 0.785,2.048332 -0.275,0.275 -1.07825,-0.196749 -1.785,-1.048332 z M 118.67623,9.9008556 c -1.24387,-1.586056 -1.2085,-1.621426 0.37756,-0.377555 1.66575,1.3063694 2.19548,2.1275554 1.37244,2.1275554 -0.20765,0 -0.99515,-0.7875 -1.75,-1.7500004 z m 18.69899,-1.821429 c -2.28586,-2.285862 -1.928,-3.061236 0.42857,-0.928571 1.1,0.995486 2,1.965231 2,2.154988 0,0.7431464 -0.92728,0.274874 -2.42857,-1.226417 z M 37.803794,7.6508556 c -0.90129,-0.58246 -1.02463,-0.975486 -0.30902,-0.984687 0.65504,-0.0084 1.4691,0.434687 1.80902,0.984687 0.7673,1.241525 0.42112,1.241525 -1.5,0 z m -11.77381,-1.578723 c 0.94941,-0.991226 1.94144,-1.58698 2.20452,-1.323898 0.26308,0.263082 -0.5137,1.074085 -1.72619,1.80223 -2.10631,1.264918 -2.12762,1.243608 -0.47833,-0.478332 z m 120.999996,0 c 0.94941,-0.991226 1.94144,-1.58698 2.20452,-1.323898 0.26308,0.263082 -0.5137,1.074085 -1.72619,1.80223 -2.10631,1.264918 -2.12762,1.243608 -0.47833,-0.478332 z M 13.228764,59.779866 c -1.05874,-1.02904 -2.14926,-1.66725 -2.4234,-1.41824 -0.27413,0.24901 0.37438,1.09096 1.44113,1.87099 2.73729,2.00155 3.25966,1.76078 0.98227,-0.45275 z M 156.24281,36.472634 c 1.40356,-2.813501 1.37731,-3.273389 -0.32484,-5.691305 -1.01848,-1.44676 -2.141,-3.563742 -2.49449,-4.704405 -0.35349,-1.140663 -1.98752,-3.362354 -3.6312,-4.937091 l -2.98849,-2.863159 -0.0153,4.937091 c -0.008,2.7154 -0.43566,5.601813 -0.94941,6.414252 -0.63754,1.008182 -0.4339,2.029879 0.64141,3.218084 0.86654,0.957508 1.68868,3.892786 1.82699,6.522839 0.13831,2.630054 0.30656,5.167006 0.37389,5.637671 0.1866,1.304299 5.83198,-5.067174 7.56145,-8.533977 z M 37.303794,40.650856 c 3.59431,-3.680903 4.33243,-4 9.25261,-4 5.45139,0 10.72699,1.941463 11.49149,4.22896 0.23363,0.699072 0.39469,-0.30396 0.3579,-2.22896 -0.0368,-1.925 0.2579,-4.4 0.65485,-5.5 0.69668,-1.930577 0.36311,-1.98832 -9.60965,-1.663515 -11.35153,0.369711 -13.6472,-0.545264 -13.6472,-5.439298 0,-3.387047 -2.68333,-4.158299 -5.3142,-1.527427 -1.74484,1.744841 -2.14321,3.318257 -2.12396,8.388945 0.0256,6.752257 1.60226,11.741295 3.71046,11.741295 0.72699,0 3.07946,-1.8 5.2277,-4 z"
     id="path4728"
     inkscape:connector-curvature="0" />
</svg>
